<?xml version="1.0" standalone="no"?>
<!DOCTYPE svg PUBLIC "-//W3C//DTD SVG 20010904//EN"
 "http://www.w3.org/TR/2001/REC-SVG-20010904/DTD/svg10.dtd">
<svg version="1.0" xmlns="http://www.w3.org/2000/svg"
 width="136.000000pt" height="93.000000pt" viewBox="0 0 136.000000 93.000000"
 preserveAspectRatio="xMidYMid meet">

<g transform="translate(0.000000,93.000000) scale(0.100000,-0.100000)"
fill="#000000" stroke="none">
<path d="M23 403 c-10 -3 -13 -54 -13 -204 l0 -199 199 0 c172 0 200 2 205 16
3 9 6 96 6 194 0 167 -1 180 -19 190 -20 10 -354 13 -378 3z m335 -200 l-3
-148 -142 -3 c-93 -2 -143 1 -144 8 -3 34 -4 276 -1 283 2 4 68 7 148 7 l145
0 -3 -147z"/>
<path d="M159 251 c-22 -21 -39 -43 -39 -48 0 -5 20 -29 45 -53 37 -37 46 -41
60 -30 20 17 19 29 -7 57 l-21 23 21 23 c26 27 28 52 6 61 -23 9 -23 9 -65
-33z"/>
<path d="M486 394 c-13 -13 -16 -45 -16 -189 0 -95 3 -180 6 -189 5 -14 33
-16 204 -16 171 0 199 2 204 16 3 9 6 94 6 189 0 144 -3 176 -16 189 -23 24
-365 24 -388 0z m342 -191 l-3 -148 -145 0 -145 0 -3 134 c-1 74 0 141 2 148
4 10 41 13 151 13 l146 0 -3 -147z"/>
<path d="M599 214 c-11 -13 -6 -22 33 -61 51 -50 58 -50 111 12 45 54 11 91
-40 43 l-23 -21 -23 21 c-28 26 -40 27 -58 6z"/>
<path d="M956 394 c-13 -13 -16 -45 -16 -189 0 -95 3 -180 6 -189 5 -14 33
-16 205 -16 l199 0 1 38 c1 20 2 108 2 195 0 126 -3 161 -14 168 -8 5 -94 9
-191 9 -147 0 -179 -3 -192 -16z m339 -194 l0 -145 -145 0 -145 0 -3 134 c-1
74 0 141 2 148 4 11 37 13 148 11 l143 -3 0 -145z"/>
<path d="M1130 275 c-11 -13 -9 -21 9 -46 l23 -31 -21 -22 c-25 -27 -26 -39
-6 -56 14 -11 23 -7 60 30 25 24 45 48 45 53 0 13 -75 87 -88 87 -5 0 -15 -7
-22 -15z"/>
</g>
</svg>
